#!OML:ASF E:\Steps\Project 1\Capture day 1\Session 2\Subject.ASF
:FULLY-SPECIFIED
:DEGREES
156
root 8.78314 16.3194 31.0474 -155.246 -0.114079 179.96
lowerback -27.1416 -0.990152 -4.80918
upperback -2.41388 -0.519995 -0.325242
thorax 12.4406 -0.784884 2.14647
lowerneck -5.38808 -4.91483 -3.81328
upperneck -9.92354 -5.05267 9.18779
head -1.88107 -2.19395 3.65271
rclavicle 3.23025e-015 3.97569e-015
rhumerus -32.1981 -11.3813 -85.6661
rradius 33.6173
rwrist -0.487462
rhand -8.01386 -55.1486
rfingers 7.12502
rthumb 17.8955 -84.3453
lclavicle 3.23025e-015 3.97569e-015
lhumerus -28.2355 -0.714315 85.4578
lradius 24.1002
lwrist -5.15455
lhand -20.2544 -12.9251
lfingers 7.12502
lthumb 6.09424 16.9672
rfemur -22.9424 7.71287 18.3218
rtibia 8.8575
rfoot -19.9622 -6.63649
rtoes -29.3284
lfemur -22.1404 -8.40972 -18.4777
ltibia 7.84622
lfoot -9.08396 4.92586
ltoes -42.695
157
root 8.78347 16.321 31.044 -155.299 -0.177935 180.007
lowerback -27.1021 -0.997563 -4.76037
upperback -2.40923 -0.546056 -0.302839
thorax 12.4271 -0.793272 2.13486
lowerneck -5.45125 -4.91369 -3.83409
upperneck -9.83269 -5.05934 9.1989
head -1.83857 -2.19628 3.656
rclavicle -4.96962e-017 -1.66979e-014
rhumerus -32.2468 -11.2877 -85.6937
rradius 33.6952
rwrist -0.569853
rhand -7.94358 -55.2545
rfingers 7.12502
rthumb 17.9631 -84.4449
lclavicle -4.96962e-017 -1.66979e-014
lhumerus -28.3207 -0.781637 85.4744
lradius 24.1807
lwrist -5.07995
lhand -20.2212 -12.8496
lfingers 7.12502
lthumb 6.1263 17.0418
rfemur -22.8677 7.80536 18.3867
rtibia 8.85096
rfoot -19.9441 -6.85078
rtoes -29.7479
lfemur -22.0601 -8.44332 -18.4082
ltibia 7.82299
lfoot -9.10291 4.88371
ltoes -42.7312
158
root 8.78247 16.322 31.0424 -155.272 -0.124219 180.035
lowerback -27.1239 -0.974248 -4.72605
upperback -2.42017 -0.527824 -0.30211
thorax 12.4244 -0.784059 2.1224
lowerneck -5.52855 -4.91411 -3.82532
upperneck -9.76288 -5.06482 9.20087
head -1.80165 -2.1975 3.65071
rclavicle -2.93207e-015 3.37934e-014
rhumerus -32.2712 -11.1732 -85.7473
rradius 33.7671
rwrist -0.79784
rhand -8.32256 -55.5569
rfingers 7.12502
rthumb 17.5985 -84.7805
lclavicle -2.93207e-015 3.37934e-014
lhumerus -28.3733 -0.82461 85.4887
lradius 24.2877
lwrist -4.9602
lhand -19.9613 -12.5778
lfingers 7.12502
lthumb 6.37718 17.3062
rfemur -22.96 7.74512 18.4073
rtibia 8.92485
rfoot -19.9931 -6.843
rtoes -30.446
lfemur -22.0705 -8.53125 -18.3584
ltibia 7.77053
lfoot -9.11399 4.97581
ltoes -41.5377
159
root 8.78493 16.3231 31.0446 -155.215 -0.127642 180.01
lowerback -27.1081 -1.00153 -4.79559
upperback -2.44519 -0.549256 -0.295292
thorax 12.3886 -0.798392 2.16243
lowerneck -5.51666 -4.93628 -3.821
upperneck -9.78991 -5.08775 9.24317
head -1.81006 -2.20893 3.66534
rclavicle 1.68967e-015 -1.59028e-015
rhumerus -32.2844 -10.9746 -85.8472
rradius 33.8623
rwrist -1.33065
rhand -8.49101 -54.9873
rfingers 7.12502
rthumb 17.4363 -84.2253
lclavicle 1.68967e-015 -1.59028e-015
lhumerus -28.4066 -0.828343 85.5164
lradius 24.2757
lwrist -5.14207
lhand -20.1786 -12.5752
lfingers 7.12502
lthumb 6.16741 17.315
rfemur -23.0292 7.84692 18.3771
rtibia 8.93519
rfoot -20.0476 -6.97584
rtoes -30.7497
lfemur -22.1632 -8.43988 -18.3791
ltibia 7.79572
lfoot -9.15043 4.83115
ltoes -40.5558
160
root 8.78455 16.3235 31.0431 -155.219 -0.208304 179.989
lowerback -27.1071 -1.04584 -4.81577
upperback -2.43502 -0.600078 -0.285271
thorax 12.4041 -0.822577 2.16673
lowerneck -5.42619 -4.95909 -3.8331
upperneck -9.86606 -5.10866 9.29899
head -1.84797 -2.22148 3.69159
rclavicle 3.18055e-015 -1.35174e-014
rhumerus -32.2685 -11.0778 -85.7512
rradius 33.9671
rwrist -0.643158
rhand -5.45463 -54.9876
rfingers 7.12502
rthumb 20.3565 -83.9407
lclavicle 3.18055e-015 -1.35174e-014
lhumerus -28.4259 -0.740565 85.4902
lradius 24.3292
lwrist -5.03398
lhand -19.8222 -12.6022
lfingers 7.12502
lthumb 6.51143 17.2777
rfemur -22.9483 7.98172 18.3369
rtibia 8.84102
rfoot -20.016 -7.1602
rtoes -30.8689
lfemur -22.1642 -8.50839 -18.3708
ltibia 7.79448
lfoot -9.13016 4.81866
ltoes -40.541
161
root 8.78404 16.324 31.0411 -155.269 -0.241923 179.977
lowerback -27.0629 -1.0661 -4.81441
upperback -2.42897 -0.626225 -0.289569
thorax 12.3896 -0.833029 2.15187
lowerneck -5.34265 -4.96234 -3.83877
upperneck -9.89059 -5.11288 9.33206
head -1.86958 -2.22699 3.70743
rclavicle 4.77083e-015 8.74653e-015
rhumerus -32.298 -11.3783 -85.5619
rradius 33.9521
rwrist 0.472949
rhand -0.797221 -52.545
rfingers 7.12502
rthumb 24.8266 -80.9533
lclavicle 4.77083e-015 8.74653e-015
lhumerus -28.5506 -0.880048 85.5378
lradius 24.4365
lwrist -5.01407
lhand -19.9649 -12.6787
lfingers 7.12502
lthumb 6.37372 17.2054
rfemur -22.8825 7.96883 18.3362
rtibia 8.85933
rfoot -20.0429 -7.16283
rtoes -30.8327
lfemur -22.098 -8.52082 -18.3892
ltibia 7.78412
lfoot -9.11846 4.80055
ltoes -40.9658
162
root 8.78535 16.3191 31.0412 -155.193 -0.205158 179.989
lowerback -27.0979 -1.05613 -4.80593
upperback -2.47608 -0.62381 -0.300088
thorax 12.3525 -0.833831 2.13528
lowerneck -5.3378 -4.95778 -3.82049
upperneck -9.82655 -5.11646 9.34435
head -1.84913 -2.23139 3.70663
rclavicle 4.72114e-015 -7.95139e-016
rhumerus -32.3601 -11.4501 -85.5283
rradius 33.9409
rwrist 0.741049
rhand -4.63784 -55.1306
rfingers 7.12502
rthumb 21.1413 -83.9979
lclavicle 4.72114e-015 -7.95139e-016
lhumerus -28.6693 -0.94099 85.536
lradius 24.5413
lwrist -4.90271
lhand -20.0038 -12.8158
lfingers 7.12502
lthumb 6.33611 17.0694
rfemur -23.0403 7.95884 18.3672
rtibia 9.00078
rfoot -20.0979 -7.15612
rtoes -30.9123
lfemur -22.1836 -8.34236 -18.407
ltibia 7.81044
lfoot -9.17905 4.66978
ltoes -41.3763
